<?xml version="1.0" encoding="utf-8"?>
<!-- Uploaded to: SVG Repo, www.svgrepo.com, Generator: SVG Repo Mixer Tools -->
<svg width="800px" height="800px" viewBox="0 0 1024 1024" class="icon"  version="1.1" xmlns="http://www.w3.org/2000/svg"><path d="M925 620.2H407.3c-22 0-39.9-17.9-39.9-39.9V305.8c0-22 17.9-39.9 39.9-39.9H925c22 0 39.9 17.9 39.9 39.9v274.6c0 22-17.9 39.8-39.9 39.8z" fill="#FFFFFF" /><path d="M443.2 699.1c-16.6-11.6-30.4-16.7-40.9-15.2-8.1 1.2-14.2 6.2-20.8 11.5-7 5.7-14.9 12.2-25.7 12.5-10.1 0.3-20.4-5.8-34.2-20.2-22.1-23.1-64.1-81-63.5-112.9-0.3-5.1 0.1-16.4 8-25.1 5.3-5.8 12.6-9 20.8-9 1.6-0.5 6.7-3.1 11-9.9 5.5-8.7 10.5-25.2 3.2-54.8-12.8-52.2-33.6-60.8-36.5-61.8h-1.2c-7.1 0-33.5 1.3-53 19.7-15.9 15.1-23.8 38.6-23.3 70 1.1 71.3 29.5 142.1 84.5 210.4 25.6 31.8 97.9 96.5 158 93.4 44.4-2.3 56.7-43.9 57.5-46.5l0.3-1.4c0.6-4.1 1.7-28.6-44.2-60.7z" fill="#E6E6E6" /><path d="M431.7 402.4h68.1c-14.1 17.7-25.3 37.8-33.7 60.2-8.4 22.5-12.9 44.5-13.4 66.1h28.9c-0.1-13.8 2.2-29.4 6.8-47 4.6-17.5 11.2-34.1 20-49.6 8.7-15.6 17.3-27.5 25.8-35.8v-21.7H431.7v27.8zM659.7 415.5h-35.2l-21.1 31.2-20-31.2h-36.6l39.2 54.9-40.9 58.3h35.1l23.2-35 23.1 35h36.7l-41.8-59.5zM740.3 475.3c9.4-8.7 16-15.3 19.6-19.9 5.5-7 9.5-13.6 12-20s3.8-13.1 3.8-20.1c0-12.4-4.4-22.7-13.2-31-8.8-8.3-20.9-12.5-36.3-12.5-14.1 0-25.8 3.6-35.2 10.8-9.4 7.2-15 19-16.7 35.5l29.8 3c0.6-8.7 2.7-15 6.4-18.8 3.7-3.8 8.7-5.7 14.9-5.7 6.3 0 11.3 1.8 14.9 5.4 3.6 3.6 5.4 8.7 5.4 15.4 0 6-2.1 12.2-6.2 18.3-3.1 4.5-11.3 13-24.8 25.6-16.8 15.6-28 28.1-33.7 37.5-5.7 9.4-9.1 19.4-10.2 29.9h105v-27.8h-59.5c1.6-2.7 3.6-5.5 6.1-8.3 2.5-2.8 8.5-8.6 17.9-17.3zM883.7 371.8h-25.2L790.7 471v26.2h64v31.4h29v-31.4h19.4V471h-19.4v-99.2z m-29 99.2h-35.9l35.9-53.4V471zM634.1 666c-4.5-2.5-10.2-0.9-12.8 3.6-1.5 2.6-3 5.3-4.6 7.9-2.7 4.4-1.2 10.2 3.2 12.9 1.5 0.9 3.2 1.3 4.8 1.3 3.2 0 6.3-1.6 8-4.5 1.6-2.7 3.3-5.5 4.9-8.3 2.6-4.7 1-10.4-3.5-12.9zM609.4 705.7c-4.1-3.2-10-2.4-13.1 1.7-1.8 2.4-3.7 4.8-5.7 7.1-3.3 4-2.7 9.9 1.3 13.2 1.7 1.4 3.8 2.1 5.9 2.1 2.7 0 5.4-1.2 7.3-3.4 2-2.5 4-5 6-7.6 3.2-4 2.4-9.9-1.7-13.1zM566 741.4l-6.6 6.3c-3.8 3.5-4 9.4-0.5 13.2 1.8 2 4.4 3 6.9 3 2.3 0 4.5-0.8 6.3-2.5 2.4-2.2 4.7-4.4 7-6.6 3.7-3.6 3.8-9.5 0.2-13.2-3.6-3.7-9.6-3.8-13.3-0.2zM652.9 623.1c-4.8-1.9-10.3 0.5-12.1 5.3-1.1 2.8-2.2 5.7-3.4 8.4-2 4.8 0.2 10.3 5 12.3 1.2 0.5 2.4 0.7 3.6 0.7 3.7 0 7.1-2.2 8.6-5.7 1.2-3 2.5-6 3.6-8.9 1.9-4.8-0.5-10.3-5.3-12.1zM531.3 770.8c-2.4 1.8-4.9 3.6-7.4 5.3-4.3 2.9-5.3 8.8-2.4 13 1.8 2.6 4.7 4.1 7.7 4.1 1.8 0 3.7-0.5 5.3-1.6 2.6-1.8 5.3-3.7 7.9-5.6 4.2-3.1 5.1-8.9 2-13.1-3.1-4.3-8.9-5.2-13.1-2.1z" fill="#005BFF" /><path d="M927.4 265.9H592.6c0.3-5.5-1.7-11-6.1-15-63.8-57.7-146.4-89.5-232.5-89.5-46.8 0-92.2 9.2-135 27.3-41.3 17.5-78.4 42.5-110.2 74.3S52 331.9 34.5 373.2C16.4 416 7.2 461.4 7.2 508.2s9.2 92.2 27.3 135C52 684.5 77 721.6 108.8 753.4c31.8 31.8 68.9 56.8 110.2 74.3 42.8 18.1 88.2 27.3 135 27.3 22.9 0 45.8-2.2 68-6.7 2.6-0.5 5-1.6 7.1-3 0.8 0 1.7-0.1 2.5-0.1 27.6-1.4 51.3-12.8 69-33.1 1.6-1.8 3.2-3.7 4.7-5.7 0.4-0.5 0.8-1 1.2-1.6 11.3-15.4 15.8-30 16.8-33.5 2.7-8.6 12.2-53.5-58.6-102.8-58.9-41.1-91.2-14.7-106.8-2-0.7 0.6-1.6 1.3-2.4 1.9-6.8-5.8-19.7-19.8-34.3-41.3-18.1-26.6-24.7-44-25.6-50 10.5-2.6 21.4-9.9 29.5-20.1 12-15.1 23.9-42.9 12.4-90-7.7-31.3-19.4-55.3-35-71.2-15.6-15.9-29.7-18.5-33.7-18.9-0.5 0-47.5-3.9-83 28.7-24.7 22.6-36.8 55.9-36.2 98.9 0.8 50.7 13.9 101.5 38.9 151 20.8 41.1 44.9 71.1 53.9 82.3 14.8 18.4 49.8 53.9 92.6 79-161.7-9.9-290.3-144.5-290.3-308.7 0-170.5 138.7-309.3 309.3-309.3 70.2 0 137.7 23.7 192.3 67H404.9c-20.7 0-37.5 16.8-37.5 37.5v279.4c0 20.7 16.8 37.5 37.5 37.5h522.6c20.7 0 37.5-16.8 37.5-37.5V303.4c-0.1-20.7-16.9-37.5-37.6-37.5zM271.6 714.2c-55-68.4-83.4-139.2-84.5-210.4-0.5-31.4 7.4-54.9 23.3-70 19.5-18.4 45.9-19.7 53-19.7h1.2c2.9 1 23.7 9.6 36.5 61.8 7.3 29.6 2.2 46.2-3.2 54.8-4.3 6.9-9.4 9.4-11 9.9-8.2 0.1-15.6 3.2-20.8 9-7.9 8.7-8.3 20-8 25.1-0.6 31.9 41.4 89.9 63.5 112.9 13.9 14.5 24.1 20.5 34.2 20.2 10.8-0.3 18.7-6.8 25.7-12.5 6.5-5.3 12.6-10.3 20.8-11.5 10.5-1.5 24.3 3.6 40.9 15.2 46 32.1 44.8 56.6 44.2 60.6l-0.3 1.4c-0.7 2.6-13 44.2-57.5 46.5-60.1 3.3-132.4-61.4-158-93.3z m674.6-131.4c0 10.3-8.4 18.7-18.7 18.7H404.9c-10.3 0-18.7-8.4-18.7-18.7V303.4c0-10.3 8.4-18.7 18.7-18.7h522.6c10.3 0 18.7 8.4 18.7 18.7v279.4z" fill="#005BFF" /><path d="M1014.6 484.2c-5.2 0-9.4 4.2-9.4 9.4v126.3c0 23.5-19.1 42.6-42.6 42.6H710.5c-5.2 0-9.4 4.2-9.4 9.4s4.2 9.4 9.4 9.4h252.2c33.8 0 61.3-27.5 61.3-61.3V493.6c0-5.2-4.2-9.4-9.4-9.4z" fill="#06F3FF" /></svg>