<?xml version="1.0" encoding="iso-8859-1"?>
<!-- Uploaded to: SVG Repo, www.svgrepo.com, Generator: SVG Repo Mixer Tools -->
<svg height="800px" width="800px" version="1.1" id="Layer_1" xmlns="http://www.w3.org/2000/svg" xmlns:xlink="http://www.w3.org/1999/xlink" 
	 viewBox="0 0 504 504" xml:space="preserve">
<circle style="fill:#4CDBC4;" cx="252" cy="252" r="252"/>
<g>
	<path style="fill:#324A5E;" d="M133.6,29.5l38.1,213.3l-15.5,2.8L119.1,37.9C123.8,34.9,128.6,32.2,133.6,29.5z"/>
	<path style="fill:#324A5E;" d="M327.4,193.1l-14,7.2L212.8,3c5.5-0.9,11-1.5,16.6-2L327.4,193.1z"/>
</g>
<g>
	<polygon style="fill:#2B3B4E;" points="161.2,184.3 171.7,242.8 156.1,245.6 146.1,189.1 	"/>
	<polygon style="fill:#2B3B4E;" points="327.4,193.1 313.4,200.3 285.1,144.8 300.3,139.9 	"/>
</g>
<path style="fill:#FF7058;" d="M451,308.9L120.7,414.1c-1.3,0.4-2.7-0.3-3.1-1.6L59.3,229.7c-0.4-1.3,0.3-2.7,1.6-3.1l330.3-105.2
	c1.3-0.4,2.7,0.3,3.1,1.6l58.2,182.8C453,307.1,452.3,308.5,451,308.9z"/>
<path style="fill:#FFFFFF;" d="M429.4,298.4l-297.2,94.7c-1.7,0.6-3.6-0.4-4.2-2.1L80.3,241.2c-0.6-1.7,0.4-3.6,2.1-4.2l297.2-94.7
	c1.7-0.6,3.6,0.4,4.2,2.1l47.7,149.7C432.1,296,431.1,297.9,429.4,298.4z M133.3,385.8l290.9-92.7l-45.7-143.4L87.6,242.4
	L133.3,385.8z"/>
<g>
	<circle style="fill:#4CDBC4;" cx="320.4" cy="202.3" r="15.3"/>
	<circle style="fill:#4CDBC4;" cx="165.5" cy="251.7" r="15.3"/>
</g>
<path style="fill:#324A5E;" d="M175.7,252.1c-3.3,0-6.3-2.1-7.4-5.3c-1.4-4.1,0.8-8.6,4.9-10L309,190.1c4.1-1.4,8.6,0.8,10,4.9
	c1.4,4.1-0.8,8.6-4.9,10l-135.8,46.7C177.4,251.9,176.6,252.1,175.7,252.1z"/>
<g>
	<path style="fill:#FFFFFF;" d="M167.8,340.8c6.1-1.9,10.2-5.9,12.6-11.9l10.5,5.6c-4,9.1-10.3,14.9-18.8,17.7
		c-8.5,2.7-16.4,2.3-23.6-1.3c-7.2-3.6-12.1-9.5-14.8-17.7c-2.6-8.2-2-15.9,1.9-23.2c3.9-7.3,9.8-12.2,17.9-14.8
		c9.1-2.9,17.7-1.9,26.1,3.1l-4.9,11.1c-5.4-3.6-11.1-4.5-16.8-2.6c-4.6,1.5-8.1,4.3-10.4,8.3c-2.3,4.1-2.7,8.7-1,13.8
		c1.6,5.1,4.5,8.8,8.6,10.9C159.1,341.8,163.3,342.2,167.8,340.8z"/>
	<path style="fill:#FFFFFF;" d="M203.2,341.4l-17.6-55.2l12.3-3.9l14.1,44.2l23.5-7.5l3.5,11L203.2,341.4z"/>
	<path style="fill:#FFFFFF;" d="M290.1,305.3c-3.8,7.2-9.8,12.2-18,14.8c-8.2,2.6-15.9,2.1-23.2-1.6s-12.3-9.6-14.9-17.7
		c-2.6-8.1-2-15.8,1.9-23c3.8-7.2,9.8-12.2,18-14.8c8.2-2.6,15.9-2.1,23.2,1.6c7.3,3.7,12.3,9.6,14.9,17.7
		C294.6,290.4,294,298,290.1,305.3z M279.4,286.3c-1.6-4.9-4.5-8.6-8.8-11.1s-8.7-3-13.3-1.5c-4.6,1.5-7.9,4.5-10,8.9
		c-2.1,4.5-2.3,9.2-0.7,14.1s4.5,8.6,8.7,11c4.3,2.4,8.7,2.9,13.3,1.5c4.6-1.5,7.9-4.4,10-8.9C280.8,295.9,281,291.2,279.4,286.3z"
		/>
	<path style="fill:#FFFFFF;" d="M309.2,258.9c-0.9,1.4-1.1,2.8-0.5,4.4c0.5,1.6,1.6,2.7,3.4,3.1c1.8,0.5,5.5,0.5,11.1,0.1
		s10.3,0.3,14.1,1.9c3.7,1.7,6.4,5,8,9.9s1,9.6-1.7,13.8c-2.7,4.3-7.1,7.4-13.2,9.3c-8.7,2.8-17.6,2.1-26.7-2.2L308,288
		c7.6,3.3,13.9,4.2,19,2.5c2.3-0.7,3.9-1.8,4.9-3.2c1-1.4,1.2-2.9,0.7-4.6s-1.6-2.8-3.3-3.3c-1.7-0.5-4.7-0.7-9.1-0.4
		c-6.9,0.5-12.3,0-16-1.5c-3.8-1.5-6.5-4.9-8.1-10.1c-1.7-5.2-1.1-9.9,1.8-13.9s7.1-7,12.7-8.8c3.7-1.2,7.6-1.7,11.7-1.6
		c4.1,0.1,7.9,0.9,11.3,2.3l-3.4,11c-6-2.1-11.5-2.3-16.6-0.7C311.5,256.5,310.1,257.5,309.2,258.9z"/>
	<path style="fill:#FFFFFF;" d="M382.5,223.3l3.5,11l-27.5,8.8l3.6,11.4l24.7-7.9l3.4,10.5l-24.7,7.9l3.7,11.5l28.3-9.1l3.5,10.9
		l-40.7,13L342.7,236L382.5,223.3z"/>
</g>
</svg>