<?xml version="1.0" encoding="utf-8"?><!-- Uploaded to: SVG Repo, www.svgrepo.com, Generator: SVG Repo Mixer Tools -->
<svg width="800px" height="800px" viewBox="0 0 32 32" fill="none" xmlns="http://www.w3.org/2000/svg">
<path d="M21.77 3.06001C20.6759 2.38333 19.4127 2.0299 18.1263 2.04052C16.8399 2.05113 15.5828 2.42537 14.5 3.12001C12.4 4.52001 11.91 7.21001 11.5 9.59001C11.22 11.1 10.93 12.65 10.28 13.31C9.94 13.64 9.2 13.54 8.11 13.31C6.84 13.08 5.26 12.8 3.97 13.74C2.97 14.48 2.35 15.8 2.09 17.8C1.85533 19.2162 1.9343 20.6665 2.32134 22.0488C2.70838 23.4311 3.39406 24.7116 4.33 25.8C6.6 28.45 10.53 30 15.06 30C24.45 30 30.06 23.39 30.06 17C30.06 11.83 26.26 5.47001 21.77 3.06001Z" fill="#F9A825"/>
<path d="M7.85 22.39H7.76C7.50499 22.3597 7.26133 22.2672 7.05037 22.1207C6.83942 21.9743 6.6676 21.7783 6.55 21.55C6.36832 21.2647 6.262 20.9379 6.24097 20.6003C6.21994 20.2626 6.28489 19.9252 6.42974 19.6195C6.5746 19.3138 6.79463 19.0498 7.06925 18.8523C7.34387 18.6548 7.6641 18.5301 8 18.49C8.24985 18.4379 8.50863 18.447 8.75419 18.5166C8.99974 18.5863 9.22476 18.7144 9.41 18.89C9.63909 19.2029 9.76754 19.5781 9.77825 19.9657C9.78897 20.3533 9.68146 20.735 9.47 21.06C9.06 21.91 8.48 22.39 7.85 22.39Z" fill="#43A047"/>
<path d="M14 25.81C13.6887 25.8088 13.3819 25.735 13.1041 25.5944C12.8264 25.4537 12.5852 25.2502 12.4 25C12.2302 24.8079 12.1103 24.577 12.051 24.3275C11.9917 24.0781 11.9948 23.8179 12.06 23.57C12.22 23.2175 12.4839 22.9223 12.8163 22.724C13.1487 22.5256 13.5338 22.4335 13.92 22.46C14.3003 22.3787 14.6965 22.4167 15.0544 22.5688C15.4123 22.7209 15.7146 22.9797 15.92 23.31C16.0217 23.5454 16.0622 23.8027 16.0377 24.058C16.0133 24.3133 15.9246 24.5582 15.78 24.77C15.6097 25.0541 15.3737 25.2933 15.0918 25.4673C14.8099 25.6413 14.4903 25.7451 14.16 25.77L14 25.81Z" fill="#039BE5"/>
<path d="M21.05 23.73C20.7347 23.7295 20.4236 23.6577 20.14 23.52C19.9039 23.4212 19.6952 23.2668 19.5316 23.0701C19.3679 22.8734 19.2542 22.6401 19.2 22.39C19.1 21.73 19.53 21.07 20.39 20.57C20.6957 20.3339 21.0658 20.1961 21.4514 20.1747C21.837 20.1533 22.22 20.2493 22.55 20.45C22.7417 20.6209 22.8891 20.8357 22.9797 21.076C23.0702 21.3164 23.1012 21.5751 23.07 21.83C23.0443 22.3429 22.8223 22.8263 22.45 23.18C22.0777 23.5337 21.5836 23.7306 21.07 23.73H21.05Z" fill="#3949AB"/>
<path d="M19.19 10.8601C18.8447 10.9046 18.4939 10.8468 18.1811 10.6939C17.8682 10.5411 17.6071 10.2998 17.43 10.0001C17.3339 9.76245 17.2982 9.50471 17.3261 9.24991C17.354 8.99511 17.4447 8.75122 17.59 8.54007C17.7501 8.23655 17.9856 7.97934 18.2739 7.79318C18.5622 7.60701 18.8935 7.49814 19.236 7.47705C19.5785 7.45596 19.9207 7.52335 20.2296 7.67274C20.5386 7.82213 20.8038 8.04849 21 8.33007C21.1673 8.52351 21.2849 8.75491 21.3424 9.00413C21.3999 9.25336 21.3956 9.51286 21.33 9.76007C21.1669 10.1131 20.8988 10.4072 20.5623 10.6023C20.2259 10.7974 19.8374 10.8839 19.45 10.8501L19.19 10.8601Z" fill="#E53935"/>
<path d="M23.44 17.14C23.3216 17.1389 23.2039 17.1221 23.09 17.09C22.45 16.9 22.09 16.23 21.95 15.25C21.8662 14.8739 21.8989 14.4811 22.0435 14.1239C22.1882 13.7667 22.4381 13.4619 22.76 13.25C22.994 13.1484 23.2492 13.1053 23.5036 13.1244C23.758 13.1436 24.0039 13.2245 24.22 13.36C24.5206 13.5142 24.7773 13.742 24.966 14.0222C25.1548 14.3024 25.2695 14.6258 25.2994 14.9623C25.3294 15.2988 25.2736 15.6374 25.1373 15.9465C25.001 16.2556 24.7886 16.5252 24.52 16.73C24.2193 16.9893 23.837 17.1345 23.44 17.14Z" fill="#8E24AA"/>
<path d="M15 20C14.7348 20 14.4804 19.8946 14.2929 19.7071C14.1054 19.5196 14 19.2652 14 19V17C14 15.43 15.2 15.1 16.71 15L16.44 14.82C16.3309 14.7466 16.2373 14.6523 16.1647 14.5427C16.092 14.433 16.0417 14.3101 16.0166 14.181C15.9915 14.0519 15.9922 13.9191 16.0185 13.7902C16.0448 13.6614 16.0963 13.539 16.17 13.43C16.3166 13.2108 16.5439 13.0584 16.8024 13.0059C17.0608 12.9535 17.3295 13.0053 17.55 13.15C20.01 14.79 19.73 15.69 19.63 16.03C19.53 16.37 19.17 17.03 18 17.03C17.332 17.0042 16.663 17.0344 16 17.12V19C16 19.1313 15.9741 19.2614 15.9239 19.3827C15.8736 19.504 15.8 19.6143 15.7071 19.7071C15.6142 19.8 15.504 19.8736 15.3827 19.9239C15.2614 19.9741 15.1313 20 15 20Z" fill="#C62828"/>
<path d="M14.49 3.11002C12.39 4.51002 11.89 7.20002 11.49 9.58002C11.21 11.09 10.93 12.65 10.27 13.3C9.94 13.63 9.2 13.53 8.11 13.3C6.84 13.07 5.26 12.79 3.96 13.73C2.96 14.47 2.35 15.79 2.09 17.79C1.85606 19.2054 1.93444 20.6549 2.31965 22.0368C2.70486 23.4187 3.38759 24.6997 4.32 25.79C6.59 28.44 10.51 30 15 30C15.31 30 15.6 30 15.9 30V2.40002C15.4047 2.58277 14.9317 2.82095 14.49 3.11002Z" fill="#FBC02D"/>
<path d="M7.83 22.38H7.74C7.48603 22.3464 7.24375 22.2526 7.0333 22.1065C6.82285 21.9604 6.65031 21.7662 6.53 21.54C6.34795 21.2533 6.24193 20.9249 6.22193 20.5858C6.20193 20.2467 6.26861 19.9082 6.41569 19.602C6.56276 19.2959 6.78539 19.0322 7.06258 18.8359C7.33976 18.6396 7.66238 18.5171 8 18.48C8.24985 18.4278 8.50863 18.437 8.75419 18.5066C8.99974 18.5763 9.22476 18.7044 9.41 18.88C9.63909 19.1929 9.76754 19.568 9.77826 19.9557C9.78897 20.3433 9.68146 20.725 9.47 21.05C9.34792 21.4026 9.12964 21.714 8.83982 21.9491C8.55 22.1841 8.20022 22.3334 7.83 22.38Z" fill="#43A047"/>
<path d="M15.94 23.4501V24.3501C16.0348 24.0576 16.0348 23.7426 15.94 23.4501Z" fill="#039BE5"/>
<path d="M15.9 23.31C15.6915 22.9829 15.3888 22.7266 15.0318 22.5748C14.6748 22.4231 14.2802 22.3831 13.9 22.46C13.5077 22.428 13.1151 22.5173 12.7752 22.7158C12.4354 22.9144 12.1647 23.2126 12 23.57C11.94 23.8212 11.9434 24.0834 12.0097 24.3329C12.076 24.5825 12.2032 24.8117 12.38 25C12.572 25.2472 12.8175 25.4475 13.0981 25.5861C13.3787 25.7247 13.6871 25.7978 14 25.8H14.13C14.4621 25.7767 14.7836 25.6736 15.0674 25.4995C15.3512 25.3254 15.5887 25.0855 15.76 24.8C15.8367 24.6678 15.8971 24.5268 15.94 24.38V23.48C15.9355 23.4216 15.922 23.3643 15.9 23.31Z" fill="#039BE5"/>
<path d="M13.94 17V19C13.94 19.2652 14.0454 19.5195 14.2329 19.7071C14.4204 19.8946 14.6748 20 14.94 20C15.2052 20 15.4596 19.8946 15.6471 19.7071C15.8346 19.5195 15.94 19.2652 15.94 19V15.09C14.78 15.25 13.94 15.69 13.94 17Z" fill="#F4511E"/>
</svg>