<?xml version="1.0" encoding="utf-8"?>
<!-- Uploaded to: SVG Repo, www.svgrepo.com, Generator: SVG Repo Mixer Tools -->
<svg width="800px" height="800px" viewBox="0 0 1024 1024" class="icon"  version="1.1" xmlns="http://www.w3.org/2000/svg"><path d="M330.147 727.583l-3.105-2.113c-23.995-16.366-56.736-10.206-73.12 13.753L120.381 934.43c-16.389 23.958-10.22 56.646 13.779 73.002l3.1 2.118c24 16.366 56.741 10.206 73.125-13.752l133.542-195.207c16.388-23.959 10.219-56.642-13.78-73.008z" fill="#E5594F" /><path d="M457.934 727.583l-3.1-2.113c-23.999-16.366-56.74-10.206-73.129 13.753L248.168 934.43c-16.388 23.958-10.22 56.646 13.775 73.002l3.109 2.118c23.995 16.366 56.736 10.206 73.12-13.752l133.537-195.207c16.394-23.959 10.225-56.642-13.775-73.008z" fill="#F0D043" /><path d="M895.09 934.213L761.813 740.007c-16.353-23.837-49.03-29.961-72.979-13.689l-3.101 2.108c-23.949 16.28-30.104 48.796-13.748 72.629L805.26 995.261c16.357 23.838 49.031 29.971 72.98 13.686l3.101-2.1c23.95-16.282 30.105-48.797 13.749-72.634z" fill="#E5594F" /><path d="M767.555 934.213L634.279 740.007c-16.357-23.837-49.031-29.961-72.985-13.689l-3.096 2.108c-23.954 16.28-30.109 48.796-13.752 72.629l133.275 194.206c16.357 23.838 49.03 29.971 72.984 13.686l3.096-2.1c23.955-16.282 30.11-48.797 13.754-72.634z" fill="#F0D043" /><path d="M712.252 364.688L577.453 338.78l-66.275-120.278-66.28 120.278-134.794 25.908 93.834 100.25-17.037 136.291 124.277-58.327 124.272 58.327-17.037-136.291z" fill="#F39A2B" /><path d="M803.625 434.496c-1.459 160.596-131.855 290.993-292.452 292.453-76.346 0.693-150.076-30.799-204.647-83.529-56.995-55.073-87.084-130.821-87.796-208.923-0.676-74.35-116.033-74.415-115.355 0 2.034 223.497 184.3 405.775 407.798 407.807 223.519 2.032 405.803-187.375 407.808-407.807 0.675-74.416-114.679-74.351-115.356-0.001z" fill="#4A5699" /><path d="M218.73 415.399c1.462-160.594 131.845-290.992 292.443-292.455 76.347-0.696 150.079 30.801 204.647 83.531 56.997 55.075 87.093 130.822 87.805 208.923 0.677 74.35 116.031 74.416 115.355 0C916.948 191.905 734.669 9.624 511.173 7.589c-223.518-2.035-405.793 187.38-407.798 407.81-0.678 74.415 114.679 74.35 115.355 0z" fill="#C45FA0" /></svg>