<?xml version="1.0" encoding="utf-8"?>
<!-- Uploaded to: SVG Repo, www.svgrepo.com, Generator: SVG Repo Mixer Tools -->
<svg width="800px" height="800px" viewBox="0 0 1024 1024" class="icon"  version="1.1" xmlns="http://www.w3.org/2000/svg"><path d="M686.4 361.9c-48 0-171.3-40.2-186.6-45.2-36.6-10.9-138-39.1-171.9-39.1-31.6 0-118.9 22.5-164.1 35.1v465.1c42.9-11.9 125.7-33.5 161.7-33.5 46.6 0 171.9 36.6 186 40.8l0.3 0.1c39.2 12.3 149.3 44 187.3 43.4 29.3-0.5 107.5-24.9 148.2-38.6V324.9c-42.7 13.3-123.9 37-160.9 37z" fill="#FFFFFF" /><path d="M887.4 269.9l-26.3 8.7c-36.5 12-139.1 43.3-174.7 43.3-35.5 0-137.8-31.3-174.3-43.3l-0.5-0.2c-13.9-4.2-137.6-40.8-183.7-40.8-47.5 0-175.2 36.6-189.6 40.8l-14.4 4.2V831l25.6-7.5c37.1-10.9 141.2-39.2 176.1-39.2 34.5 0 137.5 28.2 174.5 39.1 15.7 4.9 145.9 45.2 198.2 45.2h1.6c45.3-0.8 161.1-40.9 174.2-45.4l13.4-4.7-0.1-548.6zM511.8 785.2l-0.3-0.1c-14.1-4.2-139.4-40.8-186-40.8-36 0-118.8 21.6-161.7 33.5V312.7c45.2-12.6 132.5-35.1 164.1-35.1 34 0 135.4 28.1 171.9 39.1 15.3 5 138.6 45.2 186.6 45.2 36.9 0 118.2-23.6 160.9-36.9v465c-40.8 13.7-118.9 38.1-148.2 38.6-38 0.6-148.1-31.1-187.3-43.4z" fill="#005BFF" /><path d="M721.7 168.6c-87.3 0-158.4 71-158.4 158.4 0 67.8 43.1 128.1 107.3 149.9 7.3 2.5 18.5 8.8 40.6 36 3.5 4.3 6.9 8.7 10 12.8 30.1-41.9 43.6-46.2 48.5-47.8 66.5-21.1 110.8-82.3 110.3-152.1-0.6-86.7-71.7-157.2-158.3-157.2z" fill="#FFFFFF" /><path d="M861.5 186c-37.3-37.1-87-57.5-139.8-57.5-109.4 0-198.4 89-198.4 198.4 0 84.8 53.9 160.2 134 187.7 6.5 3.4 25.6 24.9 46.5 55.3 4 5.9 10.7 9.3 17.8 9.3h0.3c7.2-0.1 13.9-3.8 17.8-9.8 19-29.2 36.5-50 42.8-53.7 39.2-12.6 74.3-37.9 98.9-71.2 25.6-34.7 39-75.9 38.6-119.1-0.4-52.8-21.1-102.3-58.5-139.4zM670.6 476.9C606.4 455 563.3 394.8 563.3 327c0-87.3 71-158.4 158.4-158.4 86.7 0 157.7 70.5 158.4 157.2 0.5 69.9-43.8 131-110.3 152.1-4.9 1.6-18.5 5.9-48.5 47.8-3.1-4.1-6.5-8.5-10-12.8-22.2-27.2-33.4-33.5-40.7-36z" fill="#005BFF" /><path d="M797.4 405.3c-2.4 0-4.8-0.9-6.7-2.6-4.1-3.7-4.4-10-0.7-14.1 15.5-17.1 23.9-39.3 23.8-62.5-0.4-50.4-41.7-91.4-92.1-91.4-12.8 0-25.2 2.6-36.8 7.6-5.1 2.2-11-0.1-13.2-5.2-2.2-5.1 0.1-11 5.2-13.2 14.2-6.2 29.2-9.3 44.8-9.3 29.9 0 57.9 11.5 79 32.5 21.1 20.9 32.8 48.9 33.1 78.8 0.2 28.2-10.1 55.2-28.9 76-2.1 2.3-4.8 3.4-7.5 3.4z" fill="#06F3FF" /><path d="M221 601.6c-0.5 0-1 0-1.6-0.1-5.5-0.9-9.2-6-8.3-11.4 0-0.1 0.3-2 0.9-5.3 1-5.4 6.3-9 11.7-7.9 5.4 1 9 6.3 7.9 11.7-0.6 2.9-0.8 4.5-0.8 4.6-0.7 4.9-5 8.4-9.8 8.4zM691.3 764.7h-3c-2.6 0-5.2-0.2-7.7-0.4-5.5-0.4-9.6-5.2-9.2-10.7 0.4-5.5 5.2-9.6 10.7-9.2 2.2 0.2 4.4 0.3 6.5 0.3h2.7c5.5 0 10 4.5 9.9 10.1 0.1 5.5-4.4 9.9-9.9 9.9z m39.6-4.3c-4.5 0-8.6-3.1-9.7-7.6-1.3-5.4 2-10.8 7.4-12.1 3-0.7 6-1.6 8.9-2.5 5.3-1.7 10.9 1.2 12.6 6.4 1.7 5.3-1.2 10.9-6.4 12.6-3.3 1.1-6.8 2.1-10.3 2.9-1 0.2-1.8 0.3-2.5 0.3z m-88.1-5.7c-1.3 0-2.7-0.3-4-0.8-3.2-1.4-6.5-3-9.7-4.7-4.9-2.6-6.7-8.7-4.1-13.5 2.6-4.9 8.7-6.7 13.5-4.1 2.7 1.5 5.5 2.8 8.3 4 5.1 2.2 7.4 8.1 5.2 13.2-1.7 3.7-5.3 5.9-9.2 5.9z m132.9-15.4c-3 0-5.9-1.3-7.9-3.8-3.4-4.3-2.6-10.6 1.7-14 2.4-1.8 4.6-3.8 6.8-5.9 4-3.8 10.3-3.7 14.1 0.3s3.7 10.3-0.3 14.1c-2.6 2.5-5.4 4.9-8.3 7.2-1.8 1.4-4 2.1-6.1 2.1z m-173.9-12.6c-2.5 0-5-0.9-7-2.8-2.5-2.4-5-5-7.4-7.6-3.7-4.1-3.5-10.4 0.6-14.1 4.1-3.7 10.4-3.5 14.1 0.6 2.1 2.3 4.3 4.6 6.5 6.7 4 3.8 4.1 10.2 0.2 14.1-1.8 2.1-4.4 3.1-7 3.1z m204.1-26.5c-1.3 0-2.7-0.3-4-0.9-5.1-2.2-7.3-8.1-5.1-13.2 1.2-2.7 2.3-5.6 3.3-8.5 1.8-5.2 7.4-8 12.7-6.3 5.2 1.8 8 7.4 6.3 12.7-1.2 3.4-2.5 6.9-3.9 10.1-1.8 3.9-5.5 6.1-9.3 6.1z m-234.5-12.8c-3.5 0-6.8-1.8-8.7-5-1.8-3.1-3.4-6.2-5-9.3-2.5-4.9-0.4-10.9 4.5-13.4s10.9-0.4 13.4 4.5c1.4 2.8 2.9 5.6 4.4 8.3 2.7 4.8 1.1 10.9-3.7 13.6-1.5 0.8-3.2 1.3-4.9 1.3z m-17.6-46.6c-4.5 0-8.5-3-9.7-7.5-0.8-3-1.6-6.2-2.5-9.4-1.5-5.3 1.6-10.8 6.9-12.3 5.3-1.5 10.8 1.6 12.3 6.9 1 3.4 1.8 6.7 2.7 9.9 1.4 5.4-1.9 10.8-7.2 12.2-0.8 0.1-1.6 0.2-2.5 0.2z m-14.9-47.7c-4.1 0-7.9-2.5-9.4-6.6-1.1-3.1-2.3-6.1-3.5-9.2-2-5.1 0.5-10.9 5.7-13 5.1-2 10.9 0.5 13 5.7 1.2 3.1 2.4 6.4 3.6 9.5 1.9 5.2-0.8 10.9-5.9 12.8-1.2 0.6-2.3 0.8-3.5 0.8z m-307.1-35c-1 0-2-0.2-3-0.5-5.3-1.7-8.2-7.3-6.5-12.6 1-3.3 2.1-6.5 3.3-9.7 1.8-5.2 7.5-8 12.7-6.1 5.2 1.8 8 7.5 6.1 12.7-1.1 3-2.1 6.1-3.1 9.2-1.3 4.3-5.2 7-9.5 7z m287.5-11c-3.7 0-7.2-2-9-5.6-1.4-2.9-2.9-5.8-4.4-8.7-2.6-4.9-0.7-10.9 4.2-13.5 4.9-2.6 10.9-0.7 13.5 4.2 1.6 3 3.1 6.1 4.6 9.1 2.4 5 0.4 10.9-4.5 13.4-1.4 0.8-2.9 1.1-4.4 1.1z m-268.8-35.3c-1.5 0-3.1-0.3-4.5-1.1-4.9-2.5-6.9-8.5-4.4-13.4 1.6-3.1 3.2-6.2 4.9-9.2 2.7-4.8 8.8-6.6 13.6-3.9 4.8 2.7 6.6 8.8 3.9 13.6-1.5 2.7-3 5.6-4.5 8.5-1.8 3.5-5.4 5.5-9 5.5z m243.8-7.8c-3.2 0-6.3-1.5-8.3-4.3-1.8-2.7-3.7-5.3-5.6-7.9-3.3-4.4-2.3-10.7 2.1-14 4.4-3.3 10.7-2.3 14 2.1 2 2.7 4 5.6 6 8.4 3.1 4.6 2 10.8-2.6 13.9-1.7 1.2-3.7 1.8-5.6 1.8z m-216.7-33.9c-2.3 0-4.6-0.8-6.5-2.4-4.2-3.6-4.7-9.9-1.2-14.1 2.3-2.7 4.7-5.4 7.1-7.9 3.8-4 10.2-4.1 14.1-0.3 4 3.8 4.1 10.2 0.3 14.1-2.1 2.2-4.2 4.5-6.3 6.9-1.8 2.5-4.6 3.7-7.5 3.7z m184.6-4.3c-2.5 0-4.9-0.9-6.9-2.7-2.3-2.2-4.7-4.3-7-6.3-4.2-3.6-4.7-9.9-1.1-14.1 3.6-4.2 9.9-4.7 14.1-1.1 2.6 2.2 5.3 4.6 7.8 7 4 3.8 4.2 10.1 0.4 14.1-2 2.1-4.7 3.1-7.3 3.1z m-146.4-27.4c-3.6 0-7-1.9-8.8-5.3-2.6-4.9-0.8-10.9 4.1-13.5 3.2-1.7 6.5-3.3 9.8-4.7 5.1-2.2 11 0.2 13.1 5.3s-0.2 11-5.3 13.1c-2.7 1.2-5.5 2.5-8.2 3.9-1.5 0.8-3.1 1.2-4.7 1.2z m105.7-1c-1.4 0-2.9-0.3-4.3-1-2.8-1.3-5.6-2.5-8.5-3.6-5.2-2-7.8-7.7-5.8-12.9s7.7-7.8 12.9-5.8c3.3 1.3 6.6 2.7 9.9 4.2 5 2.4 7.1 8.3 4.8 13.3-1.7 3.7-5.3 5.8-9 5.8z m-48-11.9h-1.3c-2.7-0.1-5.6-0.1-8.3 0-5.5 0.2-10.2-4.1-10.4-9.6-0.2-5.5 4.1-10.2 9.6-10.4 3.3-0.1 6.6-0.1 9.8 0h0.9c5.5 0.2 9.8 4.9 9.6 10.4-0.2 5.4-4.6 9.6-9.9 9.6zM816.1 651.8h-0.3c-5.5-0.2-9.9-4.8-9.7-10.3 0-1.5 0.1-3.1 0.1-4.7 0-5.5 4.4-10 10-10 5.5 0 10 4.5 10 10 0 1.8 0 3.6-0.1 5.3-0.1 5.4-4.6 9.7-10 9.7z" fill="#005BFF" /><path d="M221 632.4c-13.2 0-24 10.8-24 24s10.8 24 24 24 24-10.8 24-24-10.8-24-24-24z" fill="#E6E6E6" /><path d="M221 612.4c-24.2 0-44 19.7-44 44s19.7 44 44 44 44-19.7 44-44-19.8-44-44-44z m0 67.9c-13.2 0-24-10.8-24-24s10.8-24 24-24 24 10.8 24 24-10.8 24-24 24z" fill="#005BFF" /><path d="M527.4 535.7c-18.3 0-33.1 14.9-33.1 33.1s14.9 33.1 33.1 33.1c18.3 0 33.1-14.9 33.1-33.1s-14.8-33.1-33.1-33.1z" fill="#E6E6E6" /><path d="M527.4 515.7c-29.3 0-53.1 23.8-53.1 53.1s23.8 53.1 53.1 53.1 53.1-23.8 53.1-53.1-23.8-53.1-53.1-53.1z m0 86.3c-18.3 0-33.1-14.9-33.1-33.1s14.9-33.1 33.1-33.1c18.3 0 33.1 14.9 33.1 33.1S545.7 602 527.4 602z" fill="#005BFF" /></svg>