<?xml version="1.0" encoding="iso-8859-1"?>
<!-- Uploaded to: SVG Repo, www.svgrepo.com, Generator: SVG Repo Mixer Tools -->
<svg version="1.1" id="Layer_1" xmlns="http://www.w3.org/2000/svg" xmlns:xlink="http://www.w3.org/1999/xlink" 
	 viewBox="0 0 502.422 502.422" xml:space="preserve">
<path style="fill:#FFD15C;" d="M348.387,31.347H21.334c-11.494,0-20.898,9.404-20.898,20.898v428.408
	c0,11.494,9.404,20.898,20.898,20.898h327.053c11.494,0,20.898-9.404,20.898-20.898V52.245
	C369.285,40.751,359.881,31.347,348.387,31.347z"/>
<rect x="28.125" y="59.225" style="fill:#FFFFFF;" width="312.424" height="413.78"/>
<path style="fill:#FF7058;" d="M255.391,0H114.33c-12.539,0-22.988,10.449-22.988,21.943v57.469h185.992V21.943
	C278.379,10.449,267.93,0,255.391,0z"/>
<g>
	<rect x="137.317" y="127.478" style="fill:#4CDBC4;" width="181.812" height="24.033"/>
	<rect x="137.317" y="212.114" style="fill:#4CDBC4;" width="181.812" height="24.033"/>
	<rect x="137.317" y="296.751" style="fill:#4CDBC4;" width="181.812" height="24.033"/>
	<rect x="137.317" y="381.388" style="fill:#4CDBC4;" width="181.812" height="24.033"/>
</g>
<g>
	<rect x="49.546" y="364.669" style="fill:#CDD6E0;" width="57.469" height="57.469"/>
	<rect x="49.546" y="280.033" style="fill:#CDD6E0;" width="57.469" height="57.469"/>
	<rect x="49.546" y="195.396" style="fill:#CDD6E0;" width="57.469" height="57.469"/>
	<rect x="49.546" y="110.759" style="fill:#CDD6E0;" width="57.469" height="57.469"/>
</g>
<g>
	<polygon style="fill:#40596B;" points="70.444,157.78 56.86,143.151 64.174,135.837 70.444,142.106 91.342,122.253 98.656,129.567 
			"/>
	<polygon style="fill:#40596B;" points="71.489,241.371 57.905,227.788 65.219,220.473 71.489,226.743 92.387,206.89 
		99.701,214.204 	"/>
</g>
<g>
	<path style="fill:#334A5E;" d="M424.664,413.78h-36.571l57.469,81.502c5.224,6.269,13.584,8.359,20.898,3.135
		c6.269-5.224,8.359-13.584,4.18-20.898L424.664,413.78z"/>
	<path style="fill:#334A5E;" d="M343.162,413.78l-44.931,64.784c-5.224,6.269-3.135,15.673,4.18,20.898
		c6.269,5.224,15.673,3.135,20.898-3.135l57.469-81.502h-37.616V413.78z"/>
</g>
<ellipse style="fill:#40596B;" cx="383.913" cy="377.208" rx="118.073" ry="117.029"/>
<path style="fill:#F2F2F2;" d="M383.913,471.249c-52.245,0-94.041-41.796-94.041-94.041s42.841-94.041,94.041-94.041
	c52.245,0,94.041,41.796,94.041,94.041C477.954,428.408,436.158,471.249,383.913,471.249z"/>
<g>
	<ellipse style="fill:#FF7058;" cx="383.913" cy="298.841" rx="8.359" ry="8.359"/>
	<ellipse style="fill:#FF7058;" cx="383.913" cy="454.531" rx="8.359" ry="8.359"/>
	<ellipse style="fill:#FF7058;" cx="462.281" cy="377.208" rx="8.359" ry="8.359"/>
	<ellipse style="fill:#FF7058;" cx="305.546" cy="377.208" rx="8.359" ry="8.359"/>
</g>
<g>
	<path style="fill:#FFD15C;" d="M380.779,377.208L380.779,377.208c0-3.135,3.135-6.269,6.269-6.269h35.527
		c3.135,0,6.269,3.135,6.269,6.269l0,0c0,3.135-3.135,6.269-6.269,6.269h-35.527C383.913,382.433,380.779,380.343,380.779,377.208z"
		/>
	<path style="fill:#FFD15C;" d="M383.913,313.469L383.913,313.469c3.135,0,6.269,3.135,6.269,6.269v56.424
		c0,3.135-3.135,6.269-6.269,6.269l0,0c-3.135,0-6.269-3.135-6.269-6.269v-56.424C377.644,316.604,380.779,313.469,383.913,313.469z
		"/>
</g>
<ellipse style="fill:#FF7058;" cx="383.913" cy="377.208" rx="14.629" ry="14.629"/>
<path style="fill:#FFD15C;" d="M347.342,235.102l106.58-105.535l-48.065-48.065l-106.58,105.535c-1.045,1.045-1.045,2.09-2.09,2.09
	c0,1.045-1.045,2.09-1.045,2.09l-1.045,2.09l-9.404,35.527l-6.269,25.078l25.078-6.269l36.571-9.404l2.09-1.045
	c1.045,0,2.09-1.045,2.09-1.045S346.297,235.102,347.342,235.102z"/>
<g>
	<path style="fill:#FF7058;" d="M307.636,206.89L419.44,95.086l-14.629-14.629l-105.535,106.58c-1.045,1.045-1.045,2.09-2.09,2.09
		c0,1.045-1.045,2.09-1.045,2.09l-1.045,2.09L307.636,206.89z"/>
	<path style="fill:#FF7058;" d="M347.342,235.102l106.58-105.535l-14.629-14.629L327.489,225.698l12.539,12.539l2.09-1.045
		c1.045,0,2.09-1.045,2.09-1.045C345.252,236.147,346.297,235.102,347.342,235.102z"/>
</g>
<polygon style="fill:#334A5E;" points="303.456,247.641 285.693,229.878 278.379,254.955 "/>
<path style="fill:#40596B;" d="M494.672,57.469l-18.808-18.808c-8.359-8.359-21.943-8.359-29.257,0L419.44,65.829l48.065,48.065
	l27.167-27.167C503.032,79.412,503.032,65.829,494.672,57.469z"/>
<polygon style="fill:#F1543F;" points="307.636,206.89 419.44,95.086 439.293,114.939 327.489,225.698 "/>
<polygon style="fill:#FFD15C;" points="419.44,66.873 467.505,114.939 452.876,129.567 404.811,81.502 "/>
</svg>