<?xml version="1.0" encoding="iso-8859-1"?>
<!-- Uploaded to: SVG Repo, www.svgrepo.com, Generator: SVG Repo Mixer Tools -->
<!DOCTYPE svg PUBLIC "-//W3C//DTD SVG 1.1//EN" "http://www.w3.org/Graphics/SVG/1.1/DTD/svg11.dtd">
<svg fill="#000000" version="1.1" id="Capa_1" xmlns="http://www.w3.org/2000/svg" xmlns:xlink="http://www.w3.org/1999/xlink" 
	 width="800px" height="800px" viewBox="0 0 93.684 93.684"
	 xml:space="preserve">
<g>
	<path d="M77.75,10.778l3.776-7.18c0.404-0.761,0.375-1.676-0.068-2.41C81.012,0.452,80.215,0,79.356,0H14.13
		c-1.354,0-2.452,1.099-2.452,2.455l0.008,91.229h70.319V19.235L77.75,10.778z M64.914,73.003c-1.714,1.185-4.623,2.229-8.744,0.489
		l-0.05-0.021c-6.362-2.974-11.853-6.765-16.793-11.592l-0.019-0.02c-4.839-4.951-8.637-10.451-11.611-16.812l-0.023-0.051
		c-1.739-4.12-0.693-7.029,0.49-8.744c1.894-2.743,5.393-4.17,7.087-4.107c0.377,0.015,0.729,0.168,0.994,0.432
		c0.032,0.033,0.063,0.067,0.094,0.104l8.148,9.793c0.28,0.335,0.396,0.775,0.321,1.207c-0.269,1.528-0.985,2.928-2.072,4.044
		l-0.534,0.55c-0.516,0.528-1.099,0.984-1.731,1.351l-0.608,0.351l0.408,0.57c2.832,3.967,6.385,7.52,10.35,10.352l0.571,0.407
		l0.352-0.608c0.365-0.633,0.82-1.217,1.352-1.733l0.545-0.529c1.119-1.088,2.518-1.805,4.047-2.073
		c0.431-0.076,0.871,0.041,1.207,0.322l9.793,8.148c0.328,0.27,0.518,0.665,0.533,1.086C69.083,67.611,67.657,71.111,64.914,73.003z
		 M16.584,19.132V4.908h58.708l-2.481,4.716c-0.373,0.709-0.375,1.556-0.006,2.271l3.742,7.237H16.584z"/>
</g>
</svg>