<?xml version="1.0" encoding="iso-8859-1"?>
<!-- Uploaded to: SVG Repo, www.svgrepo.com, Generator: SVG Repo Mixer Tools -->
<svg version="1.1" id="Layer_1" xmlns="http://www.w3.org/2000/svg" xmlns:xlink="http://www.w3.org/1999/xlink" 
	 viewBox="0 0 512 512" xml:space="preserve">
<polygon points="104,198.4 93.44,186.368 258.816,41.336 418.44,186.464 407.688,198.312 258.624,62.776 "/>
<circle cx="258.72" cy="64.512" r="37.48"/>
<rect y="177.232" style="fill:#FF583E;" width="512" height="307.736"/>
<g>
	<path style="fill:#FFFFFF;" d="M80.12,361.664c6.656,3.408,16.872,6.816,27.432,6.816c11.352,0,17.36-4.712,17.36-11.856
		c0-6.816-5.192-10.704-18.344-15.424c-18.184-6.328-30.024-16.384-30.024-32.296c0-18.656,15.576-32.944,41.384-32.944
		c12.328,0,21.424,2.6,27.912,5.52l-5.52,19.952c-4.376-2.104-12.168-5.184-22.872-5.184c-10.712,0-15.912,4.864-15.912,10.544
		c0,6.976,6.168,10.056,20.288,15.408c19.32,7.144,28.4,17.208,28.4,32.624c0,18.344-14.112,33.92-44.136,33.92
		c-12.496,0-24.832-3.248-31-6.656L80.12,361.664z"/>
	<path style="fill:#FFFFFF;" d="M192.448,359.064l-7.792,28.08h-25.64l33.432-109.384h32.456l33.92,109.384h-26.616l-8.44-28.08
		H192.448z M220.2,340.56l-6.816-23.208c-1.944-6.488-3.896-14.6-5.52-21.088h-0.32c-1.624,6.488-3.248,14.76-5.032,21.088
		l-6.488,23.208H220.2z"/>
	<path style="fill:#FFFFFF;" d="M289.68,387.144L254.632,277.76h27.104l13.304,46.264c3.728,12.976,7.136,25.48,9.728,39.104h0.488
		c2.76-13.136,6.168-26.128,9.896-38.624l13.968-46.736h26.288L318.56,387.144H289.68z"/>
	<path style="fill:#FFFFFF;" d="M432.2,340.896h-40.24v25.968h44.952v20.288h-69.784V277.76h67.512v20.296h-42.68v22.712h40.24
		V340.896z"/>
</g>
</svg>