<?xml version="1.0" encoding="utf-8"?><!-- Uploaded to: SVG Repo, www.svgrepo.com, Generator: SVG Repo Mixer Tools -->
<svg width="800px" height="800px" viewBox="0 0 32 32" fill="none" xmlns="http://www.w3.org/2000/svg">
<path d="M30 16C30.0016 15.0733 29.9111 14.1488 29.73 13.24C29.2705 10.9893 28.2681 8.88497 26.81 7.11C26.3496 6.55966 25.8517 6.04176 25.32 5.56C23.511 3.94196 21.3124 2.822 18.94 2.31C18.2006 2.1403 17.4477 2.03656 16.69 2H16C13.7641 1.99932 11.5605 2.53418 9.57375 3.55982C7.58695 4.58546 5.87471 6.07204 4.58031 7.89517C3.28591 9.7183 2.447 11.8249 2.13378 14.0388C1.82056 16.2527 2.04215 18.5093 2.78 20.62C3.03682 21.3359 3.34771 22.0312 3.71 22.7C4.67398 24.4669 6.00762 26.0052 7.62 27.21C8.1633 27.6216 8.73844 27.9895 9.34 28.31C10.5051 28.9434 11.7542 29.408 13.05 29.69C13.7514 29.8399 14.4637 29.9335 15.18 29.97C15.45 29.97 15.72 29.97 16 29.97C19.2947 29.9722 22.4835 28.8065 25 26.68C26.5601 25.3707 27.8158 23.7367 28.6793 21.8921C29.5429 20.0475 29.9936 18.0367 30 16Z" fill="#FF6F00"/>
<path d="M30 25C30.0066 26.0829 29.655 27.1376 29 28C28.6301 28.5011 28.1602 28.9199 27.62 29.23L27.44 29.34C26.7004 29.7745 25.8577 30.0024 25 30C24.0139 29.9978 23.0504 29.7041 22.2308 29.1558C21.4112 28.6075 20.772 27.8291 20.3937 26.9185C20.0153 26.0078 19.9147 25.0057 20.1044 24.038C20.2941 23.0703 20.7658 22.1803 21.46 21.48C21.4946 21.432 21.5349 21.3884 21.58 21.35C22.5114 20.4888 23.7314 20.0072 25 20C26.3261 20 27.5978 20.5268 28.5355 21.4645C29.4732 22.4021 30 23.6739 30 25Z" fill="#689F38"/>
<path d="M29 28C28.6301 28.5011 28.1602 28.9199 27.62 29.23L27.44 29.34C26.1787 28.3511 25.0256 27.2316 24 26C23.0088 24.5862 22.1707 23.071 21.5 21.48C21.5347 21.432 21.5749 21.3884 21.62 21.35C22.0749 20.9198 22.6078 20.5804 23.19 20.35C23.7957 21.8814 24.5705 23.3405 25.5 24.7C26.5249 25.9413 27.7006 27.0498 29 28Z" fill="#E0E0E0"/>
<path d="M25.32 5.56006C22.0969 7.02475 19.1504 9.03418 16.61 11.5001C16.1268 11.9751 15.6694 12.4758 15.24 13.0001C14.89 13.3901 14.56 13.8001 14.24 14.2201C13.74 14.8901 13.24 15.5701 12.82 16.2201C12.4 16.8701 12.06 17.4501 11.71 18.0701C10.106 21.0032 8.73835 24.0596 7.62 27.2101C8.16329 27.6217 8.73844 27.9895 9.34 28.3101L9.46 28.0001C10.536 24.9661 11.8466 22.0205 13.38 19.1901C13.73 18.5501 14.11 17.9201 14.5 17.3001C14.89 16.6801 15.37 15.9901 15.84 15.3701C16.202 14.8931 16.5892 14.4357 17 14.0001C17.4861 13.4474 18.0036 12.9232 18.55 12.4301C20.9702 10.184 23.7704 8.38601 26.82 7.12006C26.3567 6.56594 25.8555 6.04468 25.32 5.56006Z" fill="#263238"/>
<path d="M29.73 13.2399C27.2899 14.2976 24.6594 14.8455 22 14.8499C20.427 14.8739 18.8614 14.6304 17.37 14.1299C17.2432 14.0971 17.1195 14.0536 17 13.9999C16.3644 13.7677 15.7728 13.4296 15.25 12.9999C14.7417 12.5785 14.3436 12.0396 14.09 11.4299C12.93 8.61995 14.78 4.52995 16.7 2.06995C17.4571 2.09993 18.21 2.19698 18.95 2.35995C18.9155 2.49517 18.8466 2.61918 18.75 2.71995C16.75 4.90995 15.12 8.71995 15.93 10.7199C16.0858 11.0645 16.3225 11.3664 16.62 11.5999C17.0427 11.9246 17.5156 12.1779 18.02 12.3499L18.55 12.5199C22.1254 13.3226 25.8658 12.9218 29.19 11.3799C29.4121 11.9869 29.5926 12.6084 29.73 13.2399Z" fill="#263238"/>
<path d="M15.18 30C14.4637 29.9635 13.7514 29.8699 13.05 29.72C13.0791 29.6269 13.123 29.5391 13.18 29.46C14.39 27.67 14.77 24 14 21C13.8597 20.3705 13.6378 19.762 13.34 19.19C13.1661 18.7803 12.8735 18.432 12.5 18.19C12.2405 18.0707 11.9549 18.0191 11.67 18.04C9.53 18.04 5.16 20.25 3.82 22.48C3.78141 22.5516 3.73065 22.6159 3.67 22.67C3.30771 22.0013 2.99682 21.3059 2.74 20.59C4.99 17.99 10.05 15.54 12.74 16.19C12.9739 16.2367 13.1997 16.3176 13.41 16.43C13.7925 16.6456 14.1316 16.9304 14.41 17.27C15.1826 18.2206 15.7266 19.3359 16 20.53C16.67 23.36 16.59 27.37 15.18 30Z" fill="#263238"/>
<path d="M2 16C2.00108 17.5727 2.26471 19.1341 2.78 20.62C3.03682 21.3359 3.34771 22.0312 3.71 22.7C4.67398 24.4669 6.00762 26.0052 7.62 27.21C8.1633 27.6216 8.73844 27.9895 9.34 28.31C10.5051 28.9434 11.7542 29.408 13.05 29.69C13.7514 29.8399 14.4637 29.9335 15.18 29.97C15.45 29.97 15.72 29.97 16 29.97V2C12.287 2 8.72601 3.475 6.1005 6.1005C3.475 8.72601 2 12.287 2 16Z" fill="#FFA000"/>
<path d="M23.15 20.36C22.5678 20.5904 22.0349 20.9298 21.58 21.36C21.5349 21.3984 21.4947 21.442 21.46 21.49C20.7692 22.1908 20.3005 23.0799 20.1127 24.0459C19.9249 25.0119 20.0264 26.0118 20.4043 26.9204C20.7823 27.829 21.42 28.6059 22.2375 29.1537C23.055 29.7015 24.0159 29.9959 25 30V20C24.3661 20.0016 23.7383 20.1238 23.15 20.36Z" fill="#7CB342"/>
<path d="M15.24 13C14.89 13.39 14.56 13.8 14.24 14.22C13.74 14.89 13.24 15.57 12.82 16.22C12.4 16.87 12.06 17.45 11.71 18.07C10.106 21.0032 8.73835 24.0595 7.62 27.21C8.16329 27.6216 8.73844 27.9894 9.34 28.31L9.46 28C10.536 24.966 11.8466 22.0204 13.38 19.19C13.73 18.55 14.11 17.92 14.5 17.3C14.89 16.68 15.37 15.99 15.84 15.37C15.89 15.3 15.95 15.24 16 15.18V12.11C15.74 12.38 15.48 12.66 15.24 13Z" fill="#455A64"/>
<path d="M15.92 10.62C15.6225 9.63753 15.6505 8.58521 16 7.62V3C14.36 5.47 13.06 8.93 14.08 11.4C14.3293 12.0205 14.7277 12.5701 15.24 13C15.4753 13.207 15.7298 13.3912 16 13.55V10.75C15.9676 10.7104 15.9407 10.6667 15.92 10.62Z" fill="#455A64"/>
<path d="M16 20.53C15.749 19.3543 15.2363 18.2503 14.5 17.3C14.2216 16.9604 13.8825 16.6756 13.5 16.46C13.2896 16.3476 13.0639 16.2667 12.83 16.22C10.1 15.57 5.03999 18.02 2.82999 20.62C3.08681 21.3359 3.39771 22.0313 3.75999 22.7C3.82065 22.6459 3.87141 22.5816 3.90999 22.51C5.24999 20.28 9.61999 18.11 11.76 18.07C12.0449 18.0491 12.3305 18.1007 12.59 18.22C12.9635 18.4621 13.2561 18.8103 13.43 19.22C13.6944 19.7869 13.8859 20.385 14 21C14.73 24 14.35 27.67 13.14 29.43C13.083 29.5092 13.0391 29.597 13.01 29.69C13.7114 29.8399 14.4237 29.9335 15.14 29.97C15.5149 29.2778 15.8037 28.5424 16 27.78V20.58C15.9953 20.5637 15.9953 20.5464 16 20.53Z" fill="#455A64"/>
<path d="M23.15 20.36C22.5678 20.5904 22.0349 20.9298 21.58 21.36C21.5349 21.3984 21.4946 21.442 21.46 21.49C22.144 23.0793 22.9955 24.5912 24 26C24.27 26.33 24.64 26.73 25 27.16V24C24.2935 22.8344 23.6751 21.6177 23.15 20.36Z" fill="#ECEFF1"/>
</svg>